<svg width="29" height="22" viewBox="0 0 29 22" fill="none" xmlns="http://www.w3.org/2000/svg">
<path d="M1 19.5V2.63635C1 1.53178 1.89543 0.636353 3 0.636353H26C27.1046 0.636353 28 1.53178 28 2.63635V19.5C28 20.6046 27.1046 21.5 26 21.5H3C1.89543 21.5 1 20.6046 1 19.5Z" stroke="#284D17" stroke-width="0.5"/>
<path d="M4.27273 6.19007V21.5H3.29764C2.62893 21.5 2.00447 21.1658 1.63354 20.6094L1.40909 20.2727L1 3.90908L1.35656 2.12626C1.39143 1.95195 1.44937 1.78306 1.52887 1.62407L1.81818 1.04544C2.32101 0.79403 2.92193 0.843143 3.37726 1.17286L14.5 9.22726L25.2378 1.45162C25.9146 0.961485 26.8249 0.943851 27.5202 1.4074L27.5909 1.45453L28 3.90908V19.2023C28 19.8711 27.6658 20.4955 27.1094 20.8664L26.7727 21.0909L25.0652 21.3269V5.95453L14.5 13.3182L4.27273 6.19007Z" fill="#284D17"/>
<path d="M4.27273 6.19007V21.5H3.29764C2.62893 21.5 2.00447 21.1658 1.63354 20.6094L1.40909 20.2727L1 3.90908M1 3.90908L14.5 13.3182L25.0652 5.95453M1 3.90908L1.35656 2.12626C1.39143 1.95195 1.44937 1.78306 1.52887 1.62407L1.81818 1.04544V1.04544C2.32101 0.79403 2.92193 0.843143 3.37726 1.17286L14.5 9.22726L25.2378 1.45162C25.9146 0.961485 26.8249 0.943851 27.5202 1.4074L27.5909 1.45453L28 3.90908M28 3.90908L25.0652 5.95453M28 3.90908V19.2023C28 19.8711 27.6658 20.4955 27.1094 20.8664L26.7727 21.0909L25.0652 21.3269V5.95453" stroke="#284D17" stroke-width="0.5"/>
</svg>
