<svg width="26" height="25" viewBox="0 0 26 25" fill="none" xmlns="http://www.w3.org/2000/svg">
<path d="M0.490204 24.0196V7.35294H5.39217V24.0196H0.490204Z" fill="#284D17"/>
<path d="M8.82354 24.0196V7.35294H14.2157V9.31372C14.3791 8.66013 15.7843 7.35294 20.098 7.35294C24.4118 7.35294 25 12.2549 25 14.7059V24.0196H20.098V14.7059C20.098 13.5621 19.5098 11.2745 17.1569 11.2745C14.8039 11.2745 14.2157 13.5621 14.2157 14.7059V24.0196H8.82354Z" fill="#284D17"/>
<path d="M0.490204 24.0196V7.35294H5.39217V24.0196H0.490204Z" stroke="#284D17" stroke-width="0.5"/>
<path d="M8.82354 24.0196V7.35294H14.2157V9.31372C14.3791 8.66013 15.7843 7.35294 20.098 7.35294C24.4118 7.35294 25 12.2549 25 14.7059V24.0196H20.098V14.7059C20.098 13.5621 19.5098 11.2745 17.1569 11.2745C14.8039 11.2745 14.2157 13.5621 14.2157 14.7059V24.0196H8.82354Z" stroke="#284D17" stroke-width="0.5"/>
<circle cx="2.45098" cy="2.45098" r="2.45098" fill="#284D17"/>
</svg>
