<svg width="57" height="37" viewBox="0 0 57 37" fill="none" xmlns="http://www.w3.org/2000/svg">
<circle cx="44.3335" cy="3.33347" r="2.15463" transform="rotate(-19.2807 44.3335 3.33347)" stroke="url(#paint0_linear)" stroke-width="0.923413"/>
<path d="M46.2374 6.8957C46.9452 6.54633 48.307 5.34489 48.0922 3.33413" stroke="url(#paint1_linear)" stroke-width="0.665171" stroke-linecap="round"/>
<path d="M30.3978 33.4914C29.6896 30.9994 26.6185 25.8908 20 25.392" stroke="url(#paint2_linear)" stroke-width="2.18325" stroke-linecap="round"/>
<path d="M2.93957 25.1035C4.28168 25.4142 7.1374 25.0277 7.8234 20.9963C8.50941 16.9649 11.1842 16.7305 12.4359 17.1172" stroke="url(#paint3_linear)" stroke-width="1.45978" stroke-linecap="round"/>
<path d="M17.574 9C17.5493 8.6363 17.4014 7.14452 16.1562 5.88699C14.8863 4.60479 13.3575 4.45069 13 4.42603C13.2712 4.43836 14.9048 4.5 16.1932 3.23014C17.5 1.93562 17.4384 0.265069 17.426 0C17.463 0.382192 17.6603 1.90479 18.9671 3.16233C20.1877 4.34589 21.5993 4.53082 22 4.57397C21.624 4.59247 20.1692 4.69726 18.961 5.86849C17.6911 7.10137 17.5925 8.64863 17.574 9Z" fill="#B9CD90"/>
<path d="M17.574 9C17.5493 8.6363 17.4014 7.14452 16.1562 5.88699C14.8863 4.60479 13.3575 4.45069 13 4.42603C13.2712 4.43836 14.9048 4.5 16.1932 3.23014C17.5 1.93562 17.4384 0.265069 17.426 0C17.463 0.382192 17.6603 1.90479 18.9671 3.16233C20.1877 4.34589 21.5993 4.53082 22 4.57397C21.624 4.59247 20.1692 4.69726 18.961 5.86849C17.6911 7.10137 17.5925 8.64863 17.574 9Z" fill="url(#paint4_linear)"/>
<path d="M51.1985 25L51.1985 27.1263" stroke="url(#paint5_linear)" stroke-width="0.752211" stroke-linecap="round"/>
<path d="M51.1975 33.2697L51.1975 35.3959" stroke="url(#paint6_linear)" stroke-width="0.752211" stroke-linecap="round"/>
<path d="M46 30.1974L48.1263 30.1974" stroke="url(#paint7_linear)" stroke-width="0.752211" stroke-linecap="round"/>
<path d="M54.2688 30.1974L56.3951 30.1974" stroke="url(#paint8_linear)" stroke-width="0.752211" stroke-linecap="round"/>
<path d="M47.5222 26.5222L49.0257 28.0257" stroke="url(#paint9_linear)" stroke-width="0.752211" stroke-linecap="round"/>
<path d="M53.3691 32.3689L54.8726 33.8724" stroke="url(#paint10_linear)" stroke-width="0.752211" stroke-linecap="round"/>
<path d="M54.873 26.522L53.3695 28.0255" stroke="url(#paint11_linear)" stroke-width="0.752211" stroke-linecap="round"/>
<path d="M49.0259 32.3688L47.5224 33.8723" stroke="url(#paint12_linear)" stroke-width="0.752211" stroke-linecap="round"/>
<defs>
<linearGradient id="paint0_linear" x1="44.3335" y1="0.717132" x2="44.3335" y2="5.94981" gradientUnits="userSpaceOnUse">
<stop stop-color="#66B874"/>
<stop offset="1" stop-color="#C0D39F"/>
</linearGradient>
<linearGradient id="paint1_linear" x1="46.7109" y1="3.81734" x2="47.6187" y2="6.4125" gradientUnits="userSpaceOnUse">
<stop stop-color="#66B874"/>
<stop offset="1" stop-color="#C0D39F"/>
</linearGradient>
<linearGradient id="paint2_linear" x1="20.7408" y1="30.1376" x2="29.6569" y2="28.7457" gradientUnits="userSpaceOnUse">
<stop stop-color="#66B874"/>
<stop offset="1" stop-color="#C0D39F"/>
</linearGradient>
<linearGradient id="paint3_linear" x1="6.74817" y1="19.9932" x2="8.62731" y2="22.2276" gradientUnits="userSpaceOnUse">
<stop stop-color="#66B874"/>
<stop offset="1" stop-color="#C0D39F"/>
</linearGradient>
<linearGradient id="paint4_linear" x1="17.5" y1="0" x2="17.5" y2="9" gradientUnits="userSpaceOnUse">
<stop stop-color="#4EAE63"/>
<stop offset="0.9998" stop-color="#FEFEFF" stop-opacity="0.0104167"/>
<stop offset="0.9999" stop-color="#FEFEFF" stop-opacity="0.0104167"/>
<stop offset="1" stop-color="#F5F5F5" stop-opacity="0"/>
</linearGradient>
<linearGradient id="paint5_linear" x1="51.6985" y1="25" x2="51.6985" y2="27.1263" gradientUnits="userSpaceOnUse">
<stop stop-color="#66B874"/>
<stop offset="1" stop-color="#C0D39F"/>
</linearGradient>
<linearGradient id="paint6_linear" x1="51.6975" y1="33.2697" x2="51.6975" y2="35.3959" gradientUnits="userSpaceOnUse">
<stop stop-color="#66B874"/>
<stop offset="1" stop-color="#C0D39F"/>
</linearGradient>
<linearGradient id="paint7_linear" x1="46" y1="29.6974" x2="48.1263" y2="29.6974" gradientUnits="userSpaceOnUse">
<stop stop-color="#66B874"/>
<stop offset="1" stop-color="#C0D39F"/>
</linearGradient>
<linearGradient id="paint8_linear" x1="54.2688" y1="29.6974" x2="56.3951" y2="29.6974" gradientUnits="userSpaceOnUse">
<stop stop-color="#66B874"/>
<stop offset="1" stop-color="#C0D39F"/>
</linearGradient>
<linearGradient id="paint9_linear" x1="47.8758" y1="26.1687" x2="49.3793" y2="27.6722" gradientUnits="userSpaceOnUse">
<stop stop-color="#66B874"/>
<stop offset="1" stop-color="#C0D39F"/>
</linearGradient>
<linearGradient id="paint10_linear" x1="53.7227" y1="32.0153" x2="55.2262" y2="33.5188" gradientUnits="userSpaceOnUse">
<stop stop-color="#66B874"/>
<stop offset="1" stop-color="#C0D39F"/>
</linearGradient>
<linearGradient id="paint11_linear" x1="55.2266" y1="26.8755" x2="53.7231" y2="28.379" gradientUnits="userSpaceOnUse">
<stop stop-color="#66B874"/>
<stop offset="1" stop-color="#C0D39F"/>
</linearGradient>
<linearGradient id="paint12_linear" x1="49.3794" y1="32.7223" x2="47.8759" y2="34.2258" gradientUnits="userSpaceOnUse">
<stop stop-color="#66B874"/>
<stop offset="1" stop-color="#C0D39F"/>
</linearGradient>
</defs>
</svg>
