<svg width="108" height="27" viewBox="0 0 108 27" fill="none" xmlns="http://www.w3.org/2000/svg">
<circle cx="103.801" cy="23.648" r="1.43881" transform="rotate(-91.4511 103.801 23.648)" stroke="url(#paint0_linear)" stroke-width="0.616632"/>
<path d="M106.454 23.1662C106.377 22.6448 105.892 21.5334 104.57 21.2589" stroke="url(#paint1_linear)" stroke-width="0.444184" stroke-linecap="round"/>
<path d="M14.9142 24.3891C14.4375 22.7117 12.3702 19.2728 7.915 18.9371" stroke="url(#paint2_linear)" stroke-width="1.46963" stroke-linecap="round"/>
<path d="M94.9398 19.2694C96.1365 19.7024 98.5643 19.6757 98.7019 16.1055C98.8396 12.5353 101.128 12.6258 102.255 13.1173" stroke="url(#paint3_linear)" stroke-width="1.45978" stroke-linecap="round"/>
<path d="M102.574 9.00012C102.549 8.63642 102.401 7.14464 101.156 5.88711C99.8864 4.60492 98.3577 4.45081 98.0001 4.42615C98.2714 4.43848 99.9049 4.50012 101.193 3.23026C102.5 1.93574 102.438 0.265191 102.426 0.00012207C102.463 0.382314 102.66 1.90492 103.967 3.16245C105.188 4.34601 106.599 4.53094 107 4.57409C106.624 4.59259 105.169 4.69738 103.961 5.86861C102.691 7.10149 102.593 8.64875 102.574 9.00012Z" fill="#B9CD90"/>
<path d="M102.574 9.00012C102.549 8.63642 102.401 7.14464 101.156 5.88711C99.8864 4.60492 98.3577 4.45081 98.0001 4.42615C98.2714 4.43848 99.9049 4.50012 101.193 3.23026C102.5 1.93574 102.438 0.265191 102.426 0.00012207C102.463 0.382314 102.66 1.90492 103.967 3.16245C105.188 4.34601 106.599 4.53094 107 4.57409C106.624 4.59259 105.169 4.69738 103.961 5.86861C102.691 7.10149 102.593 8.64875 102.574 9.00012Z" fill="url(#paint4_linear)"/>
<path d="M18.1985 3L18.1985 5.12628" stroke="url(#paint5_linear)" stroke-width="1.2" stroke-linecap="round"/>
<path d="M18.1975 11.2697L18.1975 13.3959" stroke="url(#paint6_linear)" stroke-width="1.2" stroke-linecap="round"/>
<path d="M12.9999 8.19739L15.1262 8.19739" stroke="url(#paint7_linear)" stroke-width="1.2" stroke-linecap="round"/>
<path d="M21.2688 8.19739L23.3951 8.19739" stroke="url(#paint8_linear)" stroke-width="1.2" stroke-linecap="round"/>
<path d="M14.5222 4.52222L16.0257 6.02572" stroke="url(#paint9_linear)" stroke-width="1.2" stroke-linecap="round"/>
<path d="M20.3691 10.3689L21.8726 11.8724" stroke="url(#paint10_linear)" stroke-width="1.2" stroke-linecap="round"/>
<path d="M21.8732 4.52197L20.3697 6.02548" stroke="url(#paint11_linear)" stroke-width="1.2" stroke-linecap="round"/>
<path d="M16.0258 10.3688L14.5223 11.8723" stroke="url(#paint12_linear)" stroke-width="1.2" stroke-linecap="round"/>
<path d="M8.89324 10.5218C9.72047 11.8892 9.28118 13.6664 7.9161 14.4923C6.55102 15.3181 4.77292 14.8824 3.94569 13.5151L1.08847 8.79244C0.487095 7.79843 0.805111 6.50625 1.79912 5.90487C2.79313 5.30349 4.08532 5.62151 4.68669 6.61552L6.99968 10.4386C7.3752 11.0593 7.17622 11.8678 6.55552 12.2434C5.93483 12.6189 5.12631 12.4199 4.75079 11.7992L2.70992 8.42587L3.38459 8.0177L5.42545 11.391C5.57512 11.6384 5.89772 11.7197 6.14735 11.5687C6.39698 11.4177 6.47467 11.0942 6.32501 10.8468L4.01203 7.02369C3.63651 6.403 2.82799 6.20402 2.20729 6.57954C1.5866 6.95506 1.38762 7.76358 1.76314 8.38427L4.62035 13.1069C5.22173 14.1009 6.51392 14.419 7.50793 13.8176C8.50194 13.2162 8.81995 11.924 8.21858 10.93L5.63348 6.65712L6.30814 6.24895L8.89324 10.5218Z" fill="url(#paint13_linear)"/>
<defs>
<linearGradient id="paint0_linear" x1="103.801" y1="21.9009" x2="103.801" y2="25.3952" gradientUnits="userSpaceOnUse">
<stop stop-color="#66B874"/>
<stop offset="1" stop-color="#C0D39F"/>
</linearGradient>
<linearGradient id="paint1_linear" x1="104.594" y1="22.2358" x2="106.43" y2="22.1893" gradientUnits="userSpaceOnUse">
<stop stop-color="#66B874"/>
<stop offset="1" stop-color="#C0D39F"/>
</linearGradient>
<linearGradient id="paint2_linear" x1="8.41371" y1="22.1316" x2="14.4155" y2="21.1946" gradientUnits="userSpaceOnUse">
<stop stop-color="#66B874"/>
<stop offset="1" stop-color="#C0D39F"/>
</linearGradient>
<linearGradient id="paint3_linear" x1="97.6579" y1="15.0762" x2="99.537" y2="17.3106" gradientUnits="userSpaceOnUse">
<stop stop-color="#66B874"/>
<stop offset="1" stop-color="#C0D39F"/>
</linearGradient>
<linearGradient id="paint4_linear" x1="102.5" y1="0.00012207" x2="102.5" y2="9.00012" gradientUnits="userSpaceOnUse">
<stop stop-color="#4EAE63"/>
<stop offset="0.9998" stop-color="#FEFEFF" stop-opacity="0.0104167"/>
<stop offset="0.9999" stop-color="#FEFEFF" stop-opacity="0.0104167"/>
<stop offset="1" stop-color="#F5F5F5" stop-opacity="0"/>
</linearGradient>
<linearGradient id="paint5_linear" x1="18.6985" y1="3" x2="18.6985" y2="5.12628" gradientUnits="userSpaceOnUse">
<stop stop-color="#66B874"/>
<stop offset="1" stop-color="#C0D39F"/>
</linearGradient>
<linearGradient id="paint6_linear" x1="18.6975" y1="11.2697" x2="18.6975" y2="13.3959" gradientUnits="userSpaceOnUse">
<stop stop-color="#66B874"/>
<stop offset="1" stop-color="#C0D39F"/>
</linearGradient>
<linearGradient id="paint7_linear" x1="12.9999" y1="7.69739" x2="15.1262" y2="7.69739" gradientUnits="userSpaceOnUse">
<stop stop-color="#66B874"/>
<stop offset="1" stop-color="#C0D39F"/>
</linearGradient>
<linearGradient id="paint8_linear" x1="21.2688" y1="7.69739" x2="23.3951" y2="7.69739" gradientUnits="userSpaceOnUse">
<stop stop-color="#66B874"/>
<stop offset="1" stop-color="#C0D39F"/>
</linearGradient>
<linearGradient id="paint9_linear" x1="14.8758" y1="4.16866" x2="16.3793" y2="5.67217" gradientUnits="userSpaceOnUse">
<stop stop-color="#66B874"/>
<stop offset="1" stop-color="#C0D39F"/>
</linearGradient>
<linearGradient id="paint10_linear" x1="20.7226" y1="10.0153" x2="22.2261" y2="11.5188" gradientUnits="userSpaceOnUse">
<stop stop-color="#66B874"/>
<stop offset="1" stop-color="#C0D39F"/>
</linearGradient>
<linearGradient id="paint11_linear" x1="22.2267" y1="4.87553" x2="20.7232" y2="6.37903" gradientUnits="userSpaceOnUse">
<stop stop-color="#66B874"/>
<stop offset="1" stop-color="#C0D39F"/>
</linearGradient>
<linearGradient id="paint12_linear" x1="16.3794" y1="10.7223" x2="14.8759" y2="12.2258" gradientUnits="userSpaceOnUse">
<stop stop-color="#66B874"/>
<stop offset="1" stop-color="#C0D39F"/>
</linearGradient>
<linearGradient id="paint13_linear" x1="4.40641" y1="6.31466" x2="5.19494" y2="15.1199" gradientUnits="userSpaceOnUse">
<stop stop-color="#5F9F65"/>
<stop offset="1" stop-color="#B1D07E"/>
</linearGradient>
</defs>
</svg>
